<?xml version="1.0" encoding="utf-8"?>
<!-- Generator: Adobe Illustrator 13.0.0, SVG Export Plug-In . SVG Version: 6.00 Build 14948)  -->
<!DOCTYPE svg PUBLIC "-//W3C//DTD SVG 1.1//EN" "http://www.w3.org/Graphics/SVG/1.1/DTD/svg11.dtd">
<svg version="1.1" id="Layer_1" xmlns="http://www.w3.org/2000/svg" xmlns:xlink="http://www.w3.org/1999/xlink" x="0px" y="0px"
	 width="432px" height="432px" viewBox="0 0 432 432" enable-background="new 0 0 432 432" xml:space="preserve">
<g>
	<defs>
		<rect id="SVGID_1_" width="432" height="432"/>
	</defs>
	<clipPath id="SVGID_2_">
		<use xlink:href="#SVGID_1_"  overflow="visible"/>
	</clipPath>
	<path clip-path="url(#SVGID_2_)" d="M94.303,302.515c-11.788-3.011-26.021-6.117-39.881-10.426
		c-6.307-1.96-12.449-5.573-17.66-9.707c-10.873-8.627-8.813-20.209,4.412-24.057c9.898-2.879,20.305-4.009,31.405-6.09
		c-5.965-3.649-11.763-6.841-17.161-10.604c-4.886-3.406-9.881-6.941-13.862-11.302c-7.508-8.222-4.522-19.044,6.349-20.668
		c9.29-1.387,19.531-1.616,28.459,0.861c17.917,4.972,35.224,12.141,51.99,18.121c-0.169-0.303-1.171-2.216-2.276-4.067
		c-8.667-14.522-17.361-29.027-26.023-43.552c-0.798-1.337-1.551-2.727-2.122-4.172c-2.3-5.83-5.512-12.088,0.196-17.388
		c5.818-5.403,12.906-3.136,18.041,0.729c9.083,6.839,18.201,14.123,25.478,22.759c11.53,13.684,21.554,28.635,32.507,43.445
		c-2.237-13.817-5.092-27.364-6.494-41.06c-2.089-20.412-3.365-40.918-4.498-61.41c-0.266-4.809,0.888-9.891,2.327-14.558
		c3.18-10.311,12.901-13.462,20.731-5.983c5.693,5.438,11.102,12.206,13.895,19.441c6.526,16.907,11.402,34.452,16.65,50.815
		c3.371-12.022,6.645-25.747,11.116-39.07c4.528-13.499,9.936-26.733,15.57-39.819c2.594-6.02,6.632-11.608,14.605-10.806
		c7.773,0.782,11.812,6.761,12.651,13.112c1.927,14.583,2.423,29.361,3.31,44.072c0.169,2.81-0.538,5.674-1.106,10.996
		c2.84-3.907,4.279-6.084,5.913-8.104c8.009-9.902,15.575-20.238,24.384-29.373c2.97-3.078,10.075-5.314,13.581-3.848
		c3.551,1.484,7.117,8.123,6.923,12.332c-0.461,9.995-1.933,20.309-5.204,29.726c-5.165,14.865-12.141,29.1-18.278,43.435
		c8.672-3.184,17.527-7.335,26.84-9.65c15.085-3.752,25.097,5.462,21.256,19.036c-1.384,4.887-4.309,9.386-6.856,13.877
		c-1.518,2.674-3.67,4.988-6.637,8.922c9.832-2.74,17.975-5.765,26.387-7.154c9.885-1.634,20.094-3.075,29.998-2.349
		c10.827,0.795,15.266,11.104,8.981,20.144c-4.206,6.051-9.961,11.406-15.988,15.725c-9.871,7.071-20.528,13.045-31.498,19.885
		c7.819,1.211,15.096,2.271,22.343,3.507c2.021,0.345,4.083,0.953,5.908,1.872c5.385,2.714,11.188,5.45,11.303,12.614
		c0.122,7.602-6.217,9.754-11.743,11.816c-24.704,9.221-50.576,11.389-76.656,12.78c-12.367,0.66-24.609,3.39-36.963,4.646
		c-25.3,2.572-50.646,4.677-75.954,7.168c-29.549,2.909-59.033,6.65-88.634,8.782c-14.156,1.019-28.545-0.494-42.776-1.559
		c-6.182-0.463-12.065-3.539-12.66-10.661c-0.573-6.856,5.002-10.304,10.415-12.113C70.265,309.246,83.498,305.697,94.303,302.515
		 M244.712,290.689l0.612,1.767c13.458-2.659,26.874-5.563,40.384-7.93c35.9-6.288,67.448-22.148,96.422-43.616
		c3.714-2.752,12.703-9.993,11.342-12.014c-2.555-2.896-9.27-2.431-12.223-1.859c-27.468,5.313-53.8,13.723-77.466,29.244
		c-11.53,7.563-23.159,14.999-35.028,22.012C261.005,282.872,252.744,286.588,244.712,290.689 M202.341,275.775
		c1.009-14.92,2.496-29.028,2.758-43.16c0.226-12.194-0.249-24.495-1.644-36.608c-2.714-23.575-7.376-46.783-17.917-68.339
		c-2.262-4.625-5.348-8.847-8.558-14.074C167.031,137.565,184.436,246.565,202.341,275.775 M258,97.563
		c-0.75-1.688-3.917-2.979-5.758-0.824c-25.044,48.352-28.979,101.336-32.766,155.158c1.484-0.77,2.094-0.874,2.252-1.197
		c19.058-39.091,32.483-80.008,37.849-123.209C260.81,117.564,260.438,102.563,258,97.563 M310.634,122.599
		c-32.952,32.484-50.178,72.84-59.322,117.267C281.112,205.88,303.719,168.22,310.634,122.599 M336.942,196.722
		c-2.025-1.972-9.445-0.11-12.877,1.054c-6.342,2.151-12.425,5.126-18.496,8.009c-26.737,12.698-36.042,41.1-56.945,61.688
		c24.883-7.979,71-42.064,84.46-61.722C334.563,203.593,338.5,198.25,336.942,196.722 M381.149,293.899
		c2.351-0.982,1.268-2.232,0.525-3.166c-1.675-1.316-7.906-4.837-12.199-6.116c-14.065-4.188-28.128-3.342-42.162,0.855
		c-17.166,5.133-34.419,9.985-51.68,14.8c-7.956,2.218-16.019,4.054-24.033,6.063C295.563,307.971,339.041,306.86,381.149,293.899
		 M49.159,271.721c35.454,12.354,70.796,24.38,109.458,19.33c-13.021-5.385-26.447-9.695-38.667-16.255
		C96.659,262.295,73.02,267.283,49.159,271.721 M159.454,270.98c-30.896-26.322-63.51-49.066-106.561-48.868
		C83.725,248.522,122.458,257.769,159.454,270.98 M56.448,325.199c42.152,5.834,82.996-5.379,124.451-9.552
		c-27.299-2.325-54.553-3.789-81.801-3.66C84.118,312.059,69.31,315.352,56.448,325.199 M173.953,262.918
		c-16.901-32.29-34.577-63.837-62.644-87.923C127.103,207.97,144.615,239.726,173.953,262.918"/>
</g>
</svg>
