<?xml version="1.0" encoding="utf-8"?>
<!-- Generator: Adobe Illustrator 13.0.0, SVG Export Plug-In . SVG Version: 6.00 Build 14948)  -->
<!DOCTYPE svg PUBLIC "-//W3C//DTD SVG 1.1//EN" "http://www.w3.org/Graphics/SVG/1.1/DTD/svg11.dtd">
<svg version="1.1" id="Layer_1" xmlns="http://www.w3.org/2000/svg" xmlns:xlink="http://www.w3.org/1999/xlink" x="0px" y="0px"
	 width="432px" height="432px" viewBox="0 0 432 432" enable-background="new 0 0 432 432" xml:space="preserve">
<g>
	<defs>
		<rect id="SVGID_1_" width="432" height="432"/>
	</defs>
	<clipPath id="SVGID_2_">
		<use xlink:href="#SVGID_1_"  overflow="visible"/>
	</clipPath>
	<path clip-path="url(#SVGID_2_)" d="M32.974,232.313c1.09-2.435,3.052-5.193,5.656-6.116c3.896-1.381,8.602-1.304,12.676-1.777
		c10.304-1.197,20.613-2.349,30.928-3.453c20.629-2.21,41.279-4.231,61.945-6.066c12.399-1.101,24.805-2.134,37.215-3.099
		l-44.411-41.968c-3.597-3.4-7.346-7.042-8.689-11.807c-1.342-4.765,0.832-10.89,5.654-12.01c4.279-0.995,8.315,2.143,11.593,5.069
		c15.808,14.111,31.617,28.221,47.425,42.332c-1.323-45.072-2.372-90.151-3.147-135.236c-0.137-7.97,2.419-18.792,10.385-18.518
		c6.566,0.225,9.545,8.19,10.673,14.662c7.773,44.578,7.033,90.147,6.269,135.392c9.308-10.398,19.38-20.111,30.109-29.033
		c3.136-2.609,6.505-5.233,10.513-5.995c4.008-0.761,8.796,0.998,10.104,4.862c1.213,3.584-0.854,7.382-2.927,10.547
		c-8.19,12.507-17.724,24.134-28.385,34.615c46.644-4.368,93.288-8.736,139.932-13.104c6.141-0.575,12.509-1.124,18.323,0.932
		s10.918,7.498,10.492,13.65c-0.368,5.359-4.81,9.737-9.811,11.695c-5.002,1.958-10.52,1.98-15.891,2.011
		c-50.419,0.292-100.82,3.723-150.813,10.268c12.366,12.409,24.731,24.819,37.098,37.229c4.796,4.813,11.798,11.482,7.673,17.294
		c-4.625,3.563-10.678-1.049-15.15-4.478c-12.913-9.903-25.825-19.806-38.738-29.708c0.49,40.038,0.98,80.075,1.47,120.113
		c0.062,5.03,0.041,10.371-2.611,14.646c-2.653,4.274-8.975,6.661-12.863,3.469c-2.876-2.363-3.257-6.548-3.417-10.267
		c-1.926-44.753-3.853-89.506-5.778-134.259l-25.865,23.66c-4.49,4.106-10.582,8.506-16.095,5.932
		c-6.656-3.108-5.49-13.331-0.945-19.102c4.544-5.771,11.344-9.949,14.086-16.764c-36.837,3.216-73.674,6.432-110.511,9.647
		c-5.485,0.479-11.284,0.877-16.609-0.83c-2.192-0.703-5.106-1.841-6.166-3.977c-1.362-2.743-1.19-5.939-1.853-8.861"/>
</g>
</svg>
