<?xml version="1.0" encoding="utf-8"?>
<!-- Generator: Adobe Illustrator 13.0.0, SVG Export Plug-In . SVG Version: 6.00 Build 14948)  -->
<!DOCTYPE svg PUBLIC "-//W3C//DTD SVG 1.1//EN" "http://www.w3.org/Graphics/SVG/1.1/DTD/svg11.dtd">
<svg version="1.1" id="Layer_1" xmlns="http://www.w3.org/2000/svg" xmlns:xlink="http://www.w3.org/1999/xlink" x="0px" y="0px"
	 width="432px" height="432px" viewBox="0 0 432 432" enable-background="new 0 0 432 432" xml:space="preserve">
<g>
	<defs>
		<rect id="SVGID_1_" width="432" height="432"/>
	</defs>
	<clipPath id="SVGID_2_">
		<use xlink:href="#SVGID_1_"  overflow="visible"/>
	</clipPath>
	<path clip-path="url(#SVGID_2_)" d="M299.063,344.045c-3.065-0.209-8.129-1.156-13.077-0.743c-6.612,0.553-9.34-3.071-11.688-8.229
		c-11-24.159-22.118-48.264-33.231-72.37c-2.507-5.437-5.7-10.626-7.566-16.264c-1.309-3.952-2.124-10.814-1.259-12.741
		c1.885-0.636,8.05,0.231,11.548,1.647c23.074,9.34,46,19.043,68.975,28.625c7.292,3.043,14.577,6.099,21.881,9.111
		c4.912,2.027,7.638,5.563,7.854,10.953c0.659,16.456,1.255,32.914,2.052,49.363c0.298,6.138-2.288,8.546-8.404,8.71
		C324.431,342.423,312.733,343.296,299.063,344.045 M312.952,326.448c3.354,0,6.712-0.108,10.062,0.021
		c7.832,0.304,10.135-1.449,9.729-9.446c-0.398-7.862-1.982-15.656-2.764-23.509c-0.542-5.447-3.499-8.55-8.307-10.664
		c-19.752-8.688-39.409-17.59-59.199-26.189c-2.131-0.926-5.974-1.035-7.363-0.553c-0.36,0.768-0.254,5.64,0.862,7.823
		c7.205,14.089,15.959,27.511,21.89,42.093C284.664,322.748,295.468,329.542,312.952,326.448"/>
	<path clip-path="url(#SVGID_2_)" d="M91.241,266.5c-2.241-0.438-4.629-1.404-6.27-2.884c-13.113-11.826-26.06-23.837-39.05-35.799
		c-3.334-3.072-3.101-6.167-0.062-9.326c12.263-12.75,24.712-25.329,36.642-38.383c3.998-4.375,7.809-3.605,12.192-1.996
		c30.111,11.052,60.27,21.982,90.25,33.384c4.533,1.724,12.057,6.212,12.289,8.624c-0.649,2.505-8.002,6.386-12.541,8.309
		c-28.225,11.951-56.601,23.547-84.946,35.212C97.115,264.723,92.438,266.313,91.241,266.5 M92.486,250.713
		c0.701,0.037,4.087-0.944,5.64-1.535c20.804-7.92,41.619-15.815,62.343-23.941c1.934-0.758,4.906-3.319,4.884-4.617
		c-0.145-0.994-3.412-4.001-5.539-4.678c-20.075-6.385-40.177-12.709-60.45-18.416c-3.302-0.93-8.405,0.079-11.078,2.203
		c-8.214,6.525-15.716,13.959-23.363,21.179c-3.567,3.369-2.794,7.177,0.527,10.006c6.718,5.723,13.709,11.133,20.733,16.481
		C88.183,248.918,91.875,250.688,92.486,250.713"/>
	<path clip-path="url(#SVGID_2_)" d="M264.423,346.706c-0.861,1.949-1.294,4.238-2.623,5.727
		c-8.584,9.603-17.363,19.032-26.079,28.517c-3.394,3.694-6.765,7.41-10.195,11.069c-2.842,3.032-5.848,2.96-8.782,0.153
		c-12.785-12.228-25.398-24.639-38.398-36.631c-4.1-3.782-4.215-7.442-2.496-12.092c11.288-30.535,22.498-61.1,33.758-91.646
		c0.828-2.245,1.466-4.721,2.891-6.543c1.506-1.927,3.728-4.144,5.871-4.418c1.391-0.179,3.871,2.605,4.704,4.559
		c3.848,9.02,7.125,18.282,10.909,27.332c9.15,21.878,18.491,43.676,27.688,65.535C262.771,340.883,263.447,343.677,264.423,346.706
		 M194.224,343.421c0.779,1.532,1.528,4.159,3.159,6.01c6.952,7.891,14.114,15.598,21.303,23.274
		c3.323,3.55,7.17,3.095,10.004-0.288c6.433-7.68,12.699-15.534,18.442-23.732c1.317-1.881,1.057-5.731,0.153-8.169
		c-7.898-21.324-16.036-42.559-24.354-63.721c-0.712-1.811-3.085-3.644-4.98-4.032c-0.98-0.201-3.282,2.534-3.838,4.304
		c-6.535,20.78-12.855,41.629-19.209,62.465C194.627,340.438,194.567,341.411,194.224,343.421"/>
	<path clip-path="url(#SVGID_2_)" d="M344.131,264.004c-1.193-0.129-13.374-5.02-19.983-7.746
		c-25.232-10.406-50.476-20.791-75.586-31.485c-3.705-1.577-9.749-5.772-10.054-7.224c0.68-1.548,6.271-6.579,10.098-7.979
		c25.415-9.299,51.05-17.998,76.55-27.07c6.513-2.317,12.683-5.628,19.249-7.743c2.122-0.684,5.846,0.154,7.407,1.721
		c12.991,13.035,25.659,26.395,38.399,39.679c2.831,2.953,2.816,5.983-0.215,8.781c-12.972,11.979-25.926,23.978-39.032,35.808
		C349.314,262.233,346.875,263.25,344.131,264.004 M342.244,247.774c1.568,0.163,2.379-0.108,2.872-0.492
		c8.991-7.015,18.094-13.907,26.689-21.379c1.103-0.957,0.49-5.951-0.982-7.453c-7.187-7.329-15.004-14.035-22.456-21.111
		c-3.979-3.777-8.224-4.025-13.24-2.452c-19.185,6.018-38.469,11.72-57.626,17.822c-2.624,0.836-6.501,3.666-7.092,4.96
		c0.653,1.33,4.168,4.457,6.731,5.477c18.904,7.513,37.926,14.732,56.932,21.988C336.956,246.236,339.953,247.041,342.244,247.774"
		/>
	<path clip-path="url(#SVGID_2_)" d="M307.035,93.044c10.736,0.559,21.472,1.201,32.215,1.636c4.353,0.177,6.784,1.843,6.583,6.483
		c-0.761,17.609-1.075,35.256-2.601,52.798c-0.299,3.444-4.613,7.954-8.149,9.471c-22.404,9.613-45.14,18.451-67.701,27.702
		c-8.825,3.618-17.419,7.807-26.266,11.368c-2.18,0.877-6.801,1.036-7.093,0.282c-1.007-2.597-1.588-6.168-0.548-8.607
		c4.113-9.644,9.041-18.935,13.414-28.474c9.734-21.231,19.402-42.493,28.902-63.83c2.39-5.368,4.971-9.092,11.896-8.55
		 M314.541,109.763c-6.212,0.393-12.539,0.205-18.588,1.41c-3.316,0.661-7.456,2.952-9.016,5.742
		c-10.513,18.826-20.503,37.948-30.439,57.09c-0.925,1.782-1.062,5.808-0.386,6.587c0.824,0.658,4.801,0.833,6.665,0.02
		c20.647-9,41.244-18.122,61.683-27.581c2.697-1.248,5.767-4.258,6.377-6.967c1.834-8.136,3.036-16.496,3.553-24.826
		c0.656-10.57-1.045-11.77-11.926-11.133"/>
	<path clip-path="url(#SVGID_2_)" d="M133.708,92.094c4.956,0.326,11.521,0.164,17.782,1.463c2.473,0.513,5.005,3.933,6.265,6.614
		c13.38,28.466,26.517,57.047,39.698,85.607c1.403,3.041,3.127,6.047,3.83,9.259c0.506,2.311,0.303,5.507-1.007,7.221
		c-0.834,1.09-4.54,0.86-6.493,0.071c-9.066-3.663-17.897-7.902-26.945-11.612c-22.113-9.069-44.249-18.086-66.485-26.847
		c-6.917-2.726-9.998-7.066-10.114-14.599c-0.238-15.465-0.988-30.93-1.864-46.377c-0.348-6.134,1.704-8.558,8.05-8.697
		C108.363,93.934,120.284,92.898,133.708,92.094 M118.957,109.287c-3.348,0-6.723,0.274-10.037-0.058
		c-6.607-0.662-9.629,2.431-9.109,8.704c0.668,8.087,2.141,16.111,2.71,24.202c0.437,6.206,3.873,9.264,9.119,11.562
		c19.526,8.552,38.931,17.385,58.493,25.855c2.298,0.995,5.285,0.395,7.953,0.534c-0.312-2.633,0.082-5.628-1.05-7.84
		c-7.205-14.072-14.665-28.017-22.196-41.919C143.345,109.108,143.292,109.137,118.957,109.287"/>
	<path clip-path="url(#SVGID_2_)" d="M90.039,303.374c0.293-4.298,0.151-10.619,1.407-16.647c0.531-2.545,3.61-5.328,6.212-6.552
		c29.981-14.097,60.041-28.028,90.237-41.656c3.578-1.615,10.168-2.081,12.17-1.664c0.623,1.521-0.15,8.423-1.634,12.061
		c-11.995,29.413-24.483,58.625-36.464,88.043c-2.912,7.149-7.167,10.454-15.02,10.562c-15.705,0.215-31.402,1.118-47.099,1.83
		c-4.468,0.203-7.379-0.896-7.611-6.118C91.672,330.578,90.858,317.937,90.039,303.374 M107.211,318.763
		c0,3.348,0.277,6.724-0.059,10.037c-0.667,6.589,2.381,9.654,8.673,9.138c8.087-0.665,16.112-2.135,24.202-2.706
		c6.194-0.437,9.279-3.84,11.58-9.095c8.55-19.528,17.383-38.933,25.855-58.494c0.998-2.303,1.35-6.768,0.565-7.959
		c-1.152-0.496-5.628-0.113-7.834,1.016c-14.073,7.204-28.017,14.665-41.92,22.196C107.033,294.402,107.063,294.456,107.211,318.763
		"/>
	<path clip-path="url(#SVGID_2_)" d="M264.644,86.996c-2.643,6.746-5.127,13.358-7.808,19.889
		c-10.283,25.058-20.517,50.138-31.073,75.082c-1.63,3.851-6.2,10.221-7.338,10.517c-0.925-0.046-6.321-6.912-7.808-10.979
		c-9.357-25.587-18.17-51.371-27.306-77.04c-2.275-6.39-5.209-12.546-7.533-18.921c-0.492-1.349-0.239-3.801,0.686-4.711
		c13.762-13.533,27.602-26.992,41.749-40.117c1.225-1.136,5.766-0.782,7.039,0.542c12.342,12.828,24.368,25.962,36.318,39.158
		C263.04,82.039,263.535,84.544,264.644,86.996 M194.276,89.387c0.386,2.311,0.467,3.773,0.882,5.133
		c6.289,20.609,12.549,41.229,19.064,61.767c0.605,1.905,2.879,4.528,4.411,4.55c1.624,0.024,4.079-2.348,4.812-4.209
		c8.326-21.169,16.477-42.409,24.412-63.728c0.915-2.457,1.405-6.328,0.117-8.137c-6.081-8.54-12.685-16.73-19.455-24.747
		c-2.716-3.217-6.455-3.183-9.45,0.031c-7.339,7.871-14.605,15.811-21.733,23.872C195.841,85.608,195.067,87.933,194.276,89.387"/>
</g>
</svg>
