<?xml version="1.0" encoding="utf-8"?>
<!-- Generator: Adobe Illustrator 13.0.0, SVG Export Plug-In . SVG Version: 6.00 Build 14948)  -->
<!DOCTYPE svg PUBLIC "-//W3C//DTD SVG 1.1//EN" "http://www.w3.org/Graphics/SVG/1.1/DTD/svg11.dtd">
<svg version="1.1" id="Layer_1" xmlns="http://www.w3.org/2000/svg" xmlns:xlink="http://www.w3.org/1999/xlink" x="0px" y="0px"
	 width="432px" height="432px" viewBox="0 0 432 432" enable-background="new 0 0 432 432" xml:space="preserve">
<g>
	<defs>
		<rect id="SVGID_1_" width="432" height="432"/>
	</defs>
	<clipPath id="SVGID_2_">
		<use xlink:href="#SVGID_1_"  overflow="visible"/>
	</clipPath>
	<path clip-path="url(#SVGID_2_)" fill="#FFFFFF" d="M69.316,164.734c-10.625,0.135-16.691,9.602-11.718,17.974
		c5.545,9.337,12.432,18.071,19.804,26.084c10.337,11.236,21.881,21.353,32.496,32.346c9.68,10.025,18.665,20.723,28.337,30.756
		c1.498,1.554,5.039,1.139,7.636,1.635c-0.291-2.488,0.138-5.387-1.003-7.392c-3.998-7.027-8.453-13.805-12.887-20.576
		c-14.164-21.628-28.211-43.335-42.741-64.715c-3.344-4.921-8.208-8.923-12.821-12.816
		C74.149,166.115,70.855,165.414,69.316,164.734 M23.688,222.838c1.016,2.034,2.148,6.808,5.112,9.707
		c5.904,5.771,12.385,11.207,19.393,15.546c19.136,11.851,38.61,23.162,58.118,34.396c2.487,1.433,5.969,1.14,8.99,1.646
		c-0.503-3.247,0.164-7.593-1.691-9.57c-17.7-18.859-35.6-37.548-53.959-55.764c-6.164-6.117-14.516-8.963-23.411-9.29
		C28.634,209.23,23.701,213.58,23.688,222.838 M242.218,228.392c5.77-4.986,10.703-8.651,11.051-15.879
		c0.192-3.99,1.094-7.993,2.076-11.888c5.378-21.33,11.265-42.541,16.139-63.983c1.758-7.739,1.809-16.032,1.478-24.023
		c-0.251-6.026-4.064-10.629-10.518-11.526c-6.434-0.894-11.36,2.453-13.304,8.172c-2.495,7.344-4.593,15.078-5.152,22.769
		c-1.094,15.028-0.964,30.142-1.412,45.219c-0.435,14.621-1.002,29.238-1.394,43.86
		C241.127,223.165,241.747,225.234,242.218,228.392 M365.364,167.752c0.33-12.749-9.637-19.357-17.823-13.963
		c-6.26,4.125-12.286,10.206-15.655,16.823c-11.104,21.798-21.063,44.185-31.131,66.495c-1.182,2.618-0.298,6.169-0.37,9.285
		c2.767-1.212,6.398-1.684,8.168-3.751c16.373-19.121,32.724-38.278,48.375-57.986C361.366,179.065,363.488,171.633,365.364,167.752
		 M167.4,236.52c-8.89,0.06-15.519,7.788-12.997,16.834c1.989,7.136,6.055,13.918,10.217,20.181
		c12.443,18.723,25.312,37.165,38.242,55.558c1.371,1.949,4.238,2.847,6.411,4.232c0.453-2.6,1.861-5.479,1.194-7.75
		c-2.971-10.113-6.408-20.097-9.915-30.043c-5.23-14.836-10.554-29.641-16.052-44.379C181.489,243.081,176.402,237.138,167.4,236.52
		 M190.896,225.082c0.787,0.066,1.574,0.134,2.361,0.2c1.047-3.187,3.272-6.495,2.957-9.542c-2.7-26.089-5.611-52.164-9.069-78.161
		c-0.801-6.015-3.39-12-6.176-17.48c-2.401-4.726-7.608-7.636-12.495-5.235c-3.65,1.794-7.494,6.169-8.32,10.023
		c-1.164,5.43-0.78,11.822,0.967,17.137c8.605,26.178,17.859,52.144,26.962,78.158C188.693,221.93,189.942,223.454,190.896,225.082
		 M271.1,217.49c0.983,2.263,2.151,4.95,3.319,7.637c1.985-1.941,4.716-3.528,5.838-5.882c7.921-16.599,15.587-33.321,23.171-50.078
		c3.522-7.785,7.034-15.609,9.903-23.646c3.063-8.582-0.862-16.666-8.617-19.285c-7.729-2.61-15.576,1.547-18.672,10.052
		c-0.841,2.311-1.396,4.764-1.769,7.199c-1.189,7.786-1.968,15.643-3.387,23.384C277.847,183.453,274.505,199.979,271.1,217.49
		 M234.822,244.407c0.168-11.943-6.105-19.376-15.054-19.202c-8.863,0.171-15.059,7.96-14.336,18.465
		c0.324,4.697,1.306,9.349,1.976,14.021c3.066,21.369,6.043,42.75,9.332,64.085c0.294,1.902,2.601,3.495,3.973,5.232
		c1.428-1.657,3.71-3.128,4.121-5.007c1.147-5.25,1.521-10.668,2.198-16.021C229.686,285.014,232.338,264.046,234.822,244.407
		 M280.422,250.947c-2.364-3.135-4.465-7.859-8.1-10.249c-4.667-3.068-10.54-1.766-13.997,2.733
		c-2.75,3.579-4.479,8.211-5.702,12.641c-2.686,9.73-4.688,19.646-7.107,29.454c-2.957,11.99-6.351,23.885-8.892,35.961
		c-0.66,3.142,1.152,6.803,1.829,10.226c1.915-2.384,4.287-4.53,5.672-7.19c10.993-21.121,21.833-42.326,32.62-63.556
		C278.048,258.403,278.761,255.54,280.422,250.947 M329.705,266.722c4.915-2.336,8.284-3.563,11.265-5.415
		c17.753-11.03,35.528-22.035,53.021-33.469c3.802-2.484,6.824-6.43,9.586-10.16c2.802-3.785,4.447-9.046,0.508-12.298
		c-3.2-2.644-8.866-4.797-12.528-3.805c-5.514,1.493-11.07,5.099-15.138,9.248c-15.258,15.56-29.986,31.643-44.69,47.734
		C330.359,260.055,330.566,262.994,329.705,266.722 M161.63,221.339c-0.483-2.442-0.815-5.3-1.623-8.017
		c-6.506-21.895-12.846-43.845-19.82-65.59c-2.185-6.814-8.214-8.912-14.737-6.789c-6.426,2.093-9.67,7.394-7.447,14.342
		c2.102,6.568,4.996,13.006,8.414,19.005c7.334,12.873,15.334,25.365,22.84,38.144C152.053,217.196,153.822,222.813,161.63,221.339
		 M222.074,210.204c0.917,0.142,1.835,0.284,2.753,0.426c0.94-2.244,2.451-4.419,2.732-6.742
		c2.725-22.519,5.342-45.051,7.729-67.608c0.419-3.962,0.561-8.437-0.893-11.965c-1.234-2.998-4.752-6.588-7.632-6.949
		c-2.925-0.367-7.981,2.149-9.136,4.729c-2.391,5.349-4.115,11.652-3.789,17.431c0.783,13.905,2.854,27.741,4.505,41.593
		C219.502,190.824,220.825,200.51,222.074,210.204 M196.26,340.88c-0.106-0.565-0.007-1.365-0.354-1.697
		c-18.352-17.556-36.459-35.387-55.391-52.294c-3.307-2.954-10.297-3.318-15.232-2.565c-8.002,1.222-10.161,9.853-4.097,15.279
		c3.947,3.532,8.741,6.248,13.456,8.77C154.986,319.249,175.44,329.921,196.26,340.88"/>
	<path clip-path="url(#SVGID_2_)" d="M69.316,164.733c1.539,0.68,4.833,1.381,7.103,3.296c4.613,3.893,9.477,7.896,12.821,12.816
		c14.53,21.379,28.577,43.087,42.741,64.715c4.434,6.771,8.889,13.548,12.887,20.576c1.141,2.005,0.712,4.903,1.003,7.392
		c-2.597-0.496-6.138-0.081-7.637-1.635c-9.671-10.033-18.656-20.73-28.336-30.756c-10.615-10.993-22.16-21.109-32.497-32.345
		c-7.371-8.014-14.258-16.747-19.803-26.084C52.625,174.335,58.691,164.868,69.316,164.733"/>
	<path clip-path="url(#SVGID_2_)" d="M23.688,222.838c0.013-9.258,4.945-13.608,12.552-13.329c8.895,0.327,17.246,3.173,23.411,9.29
		c18.359,18.216,36.259,36.904,53.958,55.764c1.856,1.978,1.188,6.323,1.691,9.57c-3.021-0.506-6.502-0.213-8.989-1.646
		c-19.508-11.234-38.982-22.545-58.118-34.396c-7.008-4.339-13.489-9.773-19.393-15.546
		C25.835,229.646,24.705,224.872,23.688,222.838"/>
	<path clip-path="url(#SVGID_2_)" d="M242.217,228.392c-0.47-3.157-1.09-5.227-1.035-7.278c0.392-14.622,0.959-29.24,1.394-43.861
		c0.448-15.076,0.318-30.191,1.413-45.218c0.559-7.691,2.656-15.426,5.151-22.77c1.943-5.719,6.869-9.066,13.304-8.172
		c6.453,0.897,10.267,5.501,10.518,11.527c0.331,7.991,0.28,16.284-1.478,24.022c-4.874,21.442-10.761,42.653-16.139,63.983
		c-0.981,3.895-1.884,7.898-2.076,11.888C252.921,219.74,247.988,223.405,242.217,228.392"/>
	<path clip-path="url(#SVGID_2_)" d="M365.364,167.752c-1.876,3.881-3.998,11.313-8.438,16.903
		c-15.65,19.708-32.001,38.865-48.374,57.986c-1.77,2.067-5.401,2.539-8.168,3.751c0.072-3.117-0.812-6.667,0.37-9.285
		c10.067-22.311,20.027-44.696,31.131-66.495c3.369-6.617,9.396-12.698,15.655-16.823
		C355.728,148.395,365.694,155.003,365.364,167.752"/>
	<path clip-path="url(#SVGID_2_)" d="M167.4,236.52c9.002,0.618,14.09,6.562,17.101,14.633
		c5.498,14.738,10.821,29.543,16.052,44.379c3.507,9.946,6.943,19.93,9.914,30.043c0.667,2.271-0.741,5.15-1.193,7.75
		c-2.173-1.386-5.041-2.284-6.412-4.232c-12.929-18.393-25.799-36.835-38.242-55.558c-4.162-6.263-8.228-13.045-10.217-20.181
		C151.881,244.308,158.511,236.579,167.4,236.52"/>
	<path clip-path="url(#SVGID_2_)" d="M190.895,225.082c-0.953-1.628-2.202-3.152-2.813-4.899
		c-9.103-26.014-18.356-51.979-26.962-78.158c-1.747-5.315-2.131-11.708-0.967-17.137c0.826-3.854,4.67-8.229,8.321-10.023
		c4.886-2.401,10.093,0.509,12.495,5.235c2.785,5.48,5.375,11.464,6.175,17.48c3.459,25.997,6.369,52.072,9.069,78.161
		c0.315,3.046-1.91,6.354-2.957,9.541C192.469,225.216,191.682,225.148,190.895,225.082"/>
	<path clip-path="url(#SVGID_2_)" d="M271.1,217.49c3.405-17.512,6.747-34.038,9.787-50.619c1.419-7.741,2.197-15.598,3.387-23.384
		c0.372-2.435,0.928-4.889,1.769-7.199c3.096-8.505,10.942-12.662,18.672-10.052c7.754,2.619,11.68,10.703,8.617,19.284
		c-2.869,8.038-6.381,15.862-9.904,23.646c-7.583,16.758-15.25,33.479-23.17,50.079c-1.123,2.354-3.853,3.94-5.838,5.882
		C273.251,222.44,272.083,219.753,271.1,217.49"/>
	<path clip-path="url(#SVGID_2_)" d="M234.822,244.407c-2.484,19.639-5.137,40.606-7.79,61.574
		c-0.677,5.353-1.051,10.771-2.198,16.021c-0.411,1.879-2.693,3.35-4.121,5.007c-1.372-1.737-3.679-3.331-3.973-5.233
		c-3.289-21.333-6.266-42.715-9.332-64.083c-0.67-4.674-1.652-9.325-1.976-14.022c-0.723-10.505,5.473-18.294,14.336-18.465
		C228.716,225.031,234.99,232.464,234.822,244.407"/>
	<path clip-path="url(#SVGID_2_)" d="M265.088,336.049c15.57-11.547,31.158-23.066,46.705-34.646
		c3.776-2.812,7.697-5.795,9.712-10.052c2.328-4.917,1.536-11.197-2.064-15.274c-3.602-4.078-9.851-5.628-14.88-3.554
		c-3.785,1.562-6.572,4.806-9.209,7.938c-11.972,14.217-23.943,28.435-35.915,42.65l-8.344,9.909
		c-1.231,1.463-2.507,3.016-2.858,4.896c-0.351,1.88,0.606,4.149,2.478,4.548L265.088,336.049z"/>
	<path clip-path="url(#SVGID_2_)" d="M280.422,250.947c-1.661,4.593-2.374,7.456-3.677,10.021
		c-10.787,21.229-21.627,42.433-32.62,63.555c-1.385,2.66-3.757,4.807-5.672,7.19c-0.677-3.423-2.489-7.084-1.829-10.226
		c2.541-12.076,5.935-23.971,8.892-35.962c2.419-9.807,4.422-19.723,7.107-29.453c1.223-4.43,2.952-9.062,5.702-12.641
		c3.457-4.499,9.33-5.802,13.997-2.733C275.957,243.088,278.058,247.813,280.422,250.947"/>
	<path clip-path="url(#SVGID_2_)" d="M329.705,266.722c0.861-3.728,0.654-6.667,2.023-8.165
		c14.705-16.091,29.433-32.174,44.69-47.733c4.067-4.149,9.624-7.755,15.138-9.248c3.661-0.993,9.327,1.161,12.528,3.804
		c3.939,3.252,2.294,8.513-0.508,12.298c-2.762,3.73-5.784,7.676-9.586,10.16c-17.493,11.434-35.269,22.438-53.021,33.469
		C337.989,263.158,334.62,264.386,329.705,266.722"/>
	<path clip-path="url(#SVGID_2_)" d="M161.63,221.339c-7.808,1.475-9.576-4.143-12.373-8.905
		c-7.506-12.779-15.506-25.271-22.84-38.144c-3.417-5.999-6.311-12.437-8.413-19.005c-2.224-6.948,1.021-12.249,7.447-14.342
		c6.523-2.123,12.552-0.025,14.737,6.789c6.974,21.745,13.314,43.695,19.819,65.59C160.815,216.039,161.147,218.896,161.63,221.339"
		/>
	<path clip-path="url(#SVGID_2_)" d="M222.074,210.204c-1.249-9.694-2.572-19.38-3.729-29.085
		c-1.651-13.852-3.723-27.688-4.505-41.593c-0.326-5.78,1.398-12.082,3.789-17.431c1.154-2.58,6.211-5.096,9.136-4.729
		c2.88,0.361,6.397,3.95,7.632,6.949c1.453,3.528,1.312,8.003,0.893,11.965c-2.387,22.556-5.004,45.089-7.729,67.608
		c-0.281,2.323-1.792,4.498-2.732,6.741C223.909,210.488,222.991,210.346,222.074,210.204"/>
	<path clip-path="url(#SVGID_2_)" d="M196.26,340.88c-20.82-10.959-41.274-21.631-61.618-32.508
		c-4.715-2.521-9.509-5.237-13.456-8.77c-6.064-5.427-3.905-14.058,4.097-15.279c4.935-0.753,11.925-0.389,15.232,2.565
		c18.932,16.907,37.039,34.738,55.391,52.294C196.253,339.515,196.154,340.314,196.26,340.88"/>
</g>
</svg>
