<?xml version="1.0" encoding="utf-8"?><svg xmlns="http://www.w3.org/2000/svg" xmlns:xlink="http://www.w3.org/1999/xlink"><symbol viewBox="0 0 18.32 14.87" id="down" xmlns="http://www.w3.org/2000/svg"><defs><style>.acls-1{fill:#ccc}</style></defs><g id="aСлой_2" data-name="Слой 2"><path class="acls-1" d="M10.51 14.14l7.55-11.66A1.6 1.6 0 0 0 16.71 0H1.61A1.61 1.61 0 0 0 .26 2.48l7.55 11.66a1.61 1.61 0 0 0 2.7 0z" id="aСлой_1-2" data-name="Слой 1"/></g></symbol><symbol viewBox="0 0 512 512" id="download" xmlns="http://www.w3.org/2000/svg"><path d="M382.56 233.376A15.96 15.96 0 0 0 368 224h-64V16c0-8.832-7.168-16-16-16h-64c-8.832 0-16 7.168-16 16v208h-64a16.013 16.013 0 0 0-14.56 9.376c-2.624 5.728-1.6 12.416 2.528 17.152l112 128A15.946 15.946 0 0 0 256 384c4.608 0 8.992-2.016 12.032-5.472l112-128c4.16-4.704 5.12-11.424 2.528-17.152z"/><path d="M432 352v96H80v-96H16v128c0 17.696 14.336 32 32 32h416c17.696 0 32-14.304 32-32V352h-64z"/></symbol><symbol viewBox="0 0 512.092 512.092" id="link" xmlns="http://www.w3.org/2000/svg"><path d="M312.453 199.601a116.167 116.167 0 0 0-20.053-16.128 119.472 119.472 0 0 0-64.427-18.859 118.952 118.952 0 0 0-84.48 34.987L34.949 308.23a119.466 119.466 0 0 0-34.91 84.318c-.042 65.98 53.41 119.501 119.39 119.543a118.7 118.7 0 0 0 84.395-34.816l89.6-89.6a8.534 8.534 0 0 0-6.059-14.592h-3.413a143.626 143.626 0 0 1-54.613-10.581 8.533 8.533 0 0 0-9.301 1.877l-64.427 64.512c-20.006 20.006-52.442 20.006-72.448 0-20.006-20.006-20.006-52.442 0-72.448l108.971-108.885c19.99-19.965 52.373-19.965 72.363 0 13.472 12.679 34.486 12.679 47.957 0a34.134 34.134 0 0 0 9.899-21.675 34.137 34.137 0 0 0-9.9-26.282z"/><path d="M477.061 34.993c-46.657-46.657-122.303-46.657-168.96 0l-89.515 89.429a8.533 8.533 0 0 0-1.792 9.387 8.532 8.532 0 0 0 8.021 5.205h3.157a143.357 143.357 0 0 1 54.528 10.667 8.533 8.533 0 0 0 9.301-1.877l64.256-64.171c20.006-20.006 52.442-20.006 72.448 0 20.006 20.006 20.006 52.442 0 72.448l-80.043 79.957-.683.768-27.989 27.819c-19.99 19.965-52.373 19.965-72.363 0-13.472-12.679-34.486-12.679-47.957 0a34.139 34.139 0 0 0-9.899 21.845 34.137 34.137 0 0 0 9.899 26.283 118.447 118.447 0 0 0 34.133 23.893c1.792.853 3.584 1.536 5.376 2.304 1.792.768 3.669 1.365 5.461 2.048a67.799 67.799 0 0 0 5.461 1.792l5.035 1.365c3.413.853 6.827 1.536 10.325 2.133 4.214.626 8.458 1.025 12.715 1.195h6.485l5.12-.597c1.877-.085 3.84-.512 6.059-.512h2.901l5.888-.853 2.731-.512 4.949-1.024h.939a119.456 119.456 0 0 0 55.381-31.403l108.629-108.629c46.66-46.657 46.66-122.303.003-168.96z"/></symbol><symbol viewBox="0 0 11 10" id="menu" xmlns="http://www.w3.org/2000/svg"><g data-name="Слой 2"><path d="M11 4v2H0V4zm0 4v2H0V8zm0-8v2H0V0z" data-name="Слой 1"/></g></symbol><symbol viewBox="0 0 11 9.31" id="menu_1" xmlns="http://www.w3.org/2000/svg"><g data-name="Слой 2"><path d="M11 0v1.31H0V0zm0 8v1.31H0V8zm0-4v1.31H0V4z" data-name="Слой 1"/></g></symbol><symbol viewBox="0 0 11 11" id="plus" xmlns="http://www.w3.org/2000/svg"><g data-name="Слой 2"><path d="M11 4.5H6.5V0h-2v4.5H0v2h4.5V11h2V6.5H11v-2z" data-name="Слой 1"/></g></symbol><symbol viewBox="0 0 227.216 227.216" id="share" xmlns="http://www.w3.org/2000/svg"><path d="M175.897 141.476c-13.249 0-25.11 6.044-32.98 15.518l-51.194-29.066a42.671 42.671 0 0 0 2.467-14.317 42.67 42.67 0 0 0-2.467-14.316l51.19-29.073c7.869 9.477 19.732 15.523 32.982 15.523 23.634 0 42.862-19.235 42.862-42.879C218.759 19.229 199.531 0 175.897 0 152.26 0 133.03 19.229 133.03 42.865c0 5.02.874 9.838 2.467 14.319L84.304 86.258c-7.869-9.472-19.729-15.514-32.975-15.514-23.64 0-42.873 19.229-42.873 42.866 0 23.636 19.233 42.865 42.873 42.865 13.246 0 25.105-6.042 32.974-15.513l51.194 29.067a42.67 42.67 0 0 0-2.468 14.321c0 23.636 19.23 42.865 42.867 42.865 23.634 0 42.862-19.23 42.862-42.865.001-23.64-19.227-42.874-42.861-42.874zm0-126.476c15.363 0 27.862 12.5 27.862 27.865 0 15.373-12.499 27.879-27.862 27.879-15.366 0-27.867-12.506-27.867-27.879C148.03 27.5 160.531 15 175.897 15zM51.33 141.476c-15.369 0-27.873-12.501-27.873-27.865 0-15.366 12.504-27.866 27.873-27.866 15.363 0 27.861 12.5 27.861 27.866 0 15.364-12.499 27.865-27.861 27.865zm124.567 70.74c-15.366 0-27.867-12.501-27.867-27.865 0-15.37 12.501-27.875 27.867-27.875 15.363 0 27.862 12.505 27.862 27.875 0 15.364-12.499 27.865-27.862 27.865z"/></symbol><symbol viewBox="0 0 18.32 14.87" id="up" xmlns="http://www.w3.org/2000/svg"><defs><style>.hcls-1{fill:#ccc}</style></defs><g id="hСлой_2" data-name="Слой 2"><path class="hcls-1" d="M7.81.73L.26 12.39a1.61 1.61 0 0 0 1.35 2.48h15.1a1.6 1.6 0 0 0 1.35-2.48L10.51.73a1.62 1.62 0 0 0-2.7 0z" id="hСлой_1-2" data-name="Слой 1"/></g></symbol><symbol viewBox="0 0 13.98 13.97" id="x" xmlns="http://www.w3.org/2000/svg"><defs><style>.icls-1{fill:#fff}</style></defs><g id="iСлой_2" data-name="Слой 2"><path class="icls-1" d="M13.98 1.96L12.02 0 6.99 5.03 1.96 0 0 1.96l5.03 5.03-5.01 5.02 1.96 1.96 5.01-5.02 5.02 5.02 1.96-1.96-5.02-5.02 5.03-5.03z" id="iСлой_1-2" data-name="Слой 1"/></g></symbol></svg>