<svg width="56" height="56" viewBox="0 0 56 56" fill="none" xmlns="http://www.w3.org/2000/svg">
<path d="M44.3906 19.7273C44.1361 19.3455 43.7543 19.091 43.2451 19.091H33.827L41.8451 1.78183C41.9724 1.4 41.9724 0.890969 41.7178 0.509141C41.4633 0.127313 41.0815 0 40.6998 0H26.6998C25.9361 0 25.4271 0.509141 25.4271 1.27269C25.4271 2.03623 25.9362 2.54537 26.6998 2.54537H38.6634L30.6452 19.8545C30.5179 20.2363 30.5179 20.7454 30.7726 21.1272C31.0271 21.509 31.4089 21.6363 31.7907 21.6363H40.8271L22.8815 48.4909L26.6998 30.8C26.8271 30.4182 26.6998 30.0363 26.4452 29.7818C26.1907 29.4 25.8089 29.2727 25.4271 29.2727H14.3543L22.8816 1.65452C23.1361 1.01817 22.7543 0.254516 21.9907 0.127203C21.3544 -0.127312 20.5907 0.254516 20.4634 1.01806L11.5543 30.2908C11.427 30.5453 11.427 30.9271 11.6816 31.3089C11.9361 31.5634 12.3179 31.8181 12.6998 31.8181H23.8998L19.0634 54.4726C18.9361 55.1089 19.1907 55.6181 19.8271 55.8726C19.9543 56 20.2088 56 20.3361 56C20.7179 56 21.0998 55.7455 21.3543 55.4909L44.2634 21.1272C44.5179 20.6182 44.6451 20.2363 44.3906 19.7273Z" fill="#DCC493"/>
<path d="M23.2633 11.5817C22.6269 11.3272 21.8633 11.709 21.736 12.3453L17.9179 23.7998C17.6634 24.4362 18.0452 25.1998 18.6816 25.4544C18.8089 25.4544 18.9361 25.5817 19.0634 25.5817C19.5725 25.5817 20.0816 25.1998 20.2089 24.6908L24.0271 13.2363C24.2815 12.5998 23.8997 11.8362 23.2633 11.5817Z" fill="#DCC493"/>
</svg>
